<svg xmlns="http://www.w3.org/2000/svg" xmlns:xlink="http://www.w3.org/1999/xlink" version="1.1" style="shape-rendering:geometricPrecision; text-rendering:geometricPrecision; image-rendering:optimizeQuality; fill-rule:evenodd; clip-rule:evenodd" viewBox="177.47 163.5 145.03 172.06">
<g><path style="opacity:1" fill="#71467d" d="M 293.5,178.5 C 293.53,175.148 294.863,172.482 297.5,170.5C 299.185,169.816 300.185,168.483 300.5,166.5C 291.19,165.502 281.857,165.168 272.5,165.5C 241.832,165.333 211.165,165.5 180.5,166C 179.829,166.986 179.829,168.153 180.5,169.5C 178.273,168.599 177.273,166.933 177.5,164.5C 219.072,164.83 260.572,164.497 302,163.5C 303.365,164.593 303.699,165.926 303,167.5C 299.968,171.359 296.802,175.026 293.5,178.5 Z"/></g>
<g><path style="opacity:1" fill="#a561bb" d="M 272.5,165.5 C 266.021,166.491 259.354,166.824 252.5,166.5C 237.5,166.5 222.5,166.5 207.5,166.5C 199.16,166.334 190.827,166.5 182.5,167C 182.043,167.414 181.709,167.914 181.5,168.5C 182.986,170.302 183.986,172.302 184.5,174.5C 182.413,173.415 181.08,171.749 180.5,169.5C 179.829,168.153 179.829,166.986 180.5,166C 211.165,165.5 241.832,165.333 272.5,165.5 Z"/></g>
<g><path style="opacity:1" fill="#822c84" d="M 297.5,170.5 C 294.863,172.482 293.53,175.148 293.5,178.5C 293.262,180.404 292.262,181.738 290.5,182.5C 289.5,182.5 288.5,182.5 287.5,182.5C 284.186,183.707 280.852,183.707 277.5,182.5C 277.372,180.91 276.705,179.577 275.5,178.5C 274.5,179.833 273.5,179.833 272.5,178.5C 270.32,176.739 268.654,174.573 267.5,172C 265.156,171.163 263.156,169.829 261.5,168C 273.836,166.733 286.169,166.566 298.5,167.5C 297.873,168.417 297.539,169.417 297.5,170.5 Z"/></g>
<g><path style="opacity:1" fill="#b365d7" d="M 207.5,166.5 C 206.828,167.267 205.995,167.934 205,168.5C 203.708,167.209 202.542,167.209 201.5,168.5C 197.625,170.479 193.625,171.146 189.5,170.5C 192.785,171.324 196.118,171.824 199.5,172C 201.346,174.092 203.679,175.426 206.5,176C 203.788,179.383 201.788,178.883 200.5,174.5C 199.833,174.833 199.167,175.167 198.5,175.5C 198.06,176.698 197.727,177.865 197.5,179C 198.448,179.483 199.448,179.649 200.5,179.5C 200.649,180.552 200.483,181.552 200,182.5C 197.373,181.686 195.04,180.353 193,178.5C 192.53,179.577 192.697,180.577 193.5,181.5C 192.761,181.631 192.094,181.464 191.5,181C 190.044,179.255 188.711,177.422 187.5,175.5C 186.583,174.873 185.583,174.539 184.5,174.5C 183.986,172.302 182.986,170.302 181.5,168.5C 181.709,167.914 182.043,167.414 182.5,167C 190.827,166.5 199.16,166.334 207.5,166.5 Z"/></g>
<g><path style="opacity:1" fill="#a84fc6" d="M 248.5,189.5 C 244.788,188.153 241.122,186.82 237.5,185.5C 233.282,180.678 228.282,176.678 222.5,173.5C 219.103,172.283 215.77,171.283 212.5,170.5C 218.123,170.955 223.79,170.455 229.5,169C 231.612,169.906 232.445,171.406 232,173.5C 230.927,172.72 229.76,172.887 228.5,174C 229.22,176.122 230.387,176.622 232,175.5C 232.333,176.167 232.667,176.833 233,177.5C 234.768,173.675 236.768,173.675 239,177.5C 239.333,177.167 239.667,176.833 240,176.5C 241.535,178.674 243.368,180.507 245.5,182C 245.333,182.5 245.167,183 245,183.5C 243.846,182.257 242.512,181.257 241,180.5C 240.333,181.167 240.333,181.833 241,182.5C 243.697,184.7 246.197,187.033 248.5,189.5 Z"/></g>
<g><path style="opacity:1" fill="#a34ebd" d="M 207.5,166.5 C 222.5,166.5 237.5,166.5 252.5,166.5C 248.366,167.485 244.032,167.818 239.5,167.5C 237.553,168.473 235.553,169.473 233.5,170.5C 236.833,171.667 240.167,172.833 243.5,174C 246.293,178.132 249.96,181.132 254.5,183C 255.899,186.064 258.232,188.064 261.5,189C 263.037,190.11 263.703,191.61 263.5,193.5C 258.843,194.006 254.51,193.173 250.5,191C 250.833,190.667 251.167,190.333 251.5,190C 250.552,189.517 249.552,189.351 248.5,189.5C 246.197,187.033 243.697,184.7 241,182.5C 240.333,181.833 240.333,181.167 241,180.5C 242.512,181.257 243.846,182.257 245,183.5C 245.167,183 245.333,182.5 245.5,182C 243.368,180.507 241.535,178.674 240,176.5C 239.667,176.833 239.333,177.167 239,177.5C 236.768,173.675 234.768,173.675 233,177.5C 232.667,176.833 232.333,176.167 232,175.5C 230.387,176.622 229.22,176.122 228.5,174C 229.76,172.887 230.927,172.72 232,173.5C 232.445,171.406 231.612,169.906 229.5,169C 223.79,170.455 218.123,170.955 212.5,170.5C 208.833,169.833 205.167,169.167 201.5,168.5C 202.542,167.209 203.708,167.209 205,168.5C 205.995,167.934 206.828,167.267 207.5,166.5 Z"/></g>
<g><path style="opacity:1" fill="#913a9b" d="M 272.5,165.5 C 281.857,165.168 291.19,165.502 300.5,166.5C 300.185,168.483 299.185,169.816 297.5,170.5C 297.539,169.417 297.873,168.417 298.5,167.5C 286.169,166.566 273.836,166.733 261.5,168C 263.156,169.829 265.156,171.163 267.5,172C 268.654,174.573 270.32,176.739 272.5,178.5C 273.5,179.833 274.5,179.833 275.5,178.5C 276.705,179.577 277.372,180.91 277.5,182.5C 276.504,182.414 275.671,182.748 275,183.5C 273.477,180.027 271.477,179.36 269,181.5C 265.276,178.88 262.109,175.713 259.5,172C 255.49,169.827 251.157,168.994 246.5,169.5C 243.612,170.01 241.279,169.344 239.5,167.5C 244.032,167.818 248.366,167.485 252.5,166.5C 259.354,166.824 266.021,166.491 272.5,165.5 Z"/></g>
<g><path style="opacity:1" fill="#82498e" d="M 318.5,166.5 C 319.831,173.468 320.497,180.802 320.5,188.5C 320.5,196.008 320.166,203.341 319.5,210.5C 319.5,199.5 319.5,188.5 319.5,177.5C 319.664,174.813 319.497,172.146 319,169.5C 314.481,175.236 309.981,180.903 305.5,186.5C 301.757,192.308 297.757,197.975 293.5,203.5C 292.167,203.5 291.5,204.167 291.5,205.5C 288.939,207.64 286.605,209.973 284.5,212.5C 287.751,207.067 291.251,201.733 295,196.5C 302.612,186.25 310.445,176.25 318.5,166.5 Z"/></g>
<g><path style="opacity:1" fill="#af5cd3" d="M 201.5,168.5 C 205.167,169.167 208.833,169.833 212.5,170.5C 215.77,171.283 219.103,172.283 222.5,173.5C 228.282,176.678 233.282,180.678 237.5,185.5C 237.918,186.222 238.584,186.722 239.5,187C 236.833,187.667 236.833,188.333 239.5,189C 236.142,188.997 233.142,187.83 230.5,185.5C 229.378,187.044 229.711,188.377 231.5,189.5C 231.192,190.308 230.692,190.975 230,191.5C 225.585,187.708 220.751,184.541 215.5,182C 211.416,180.718 208.082,181.718 205.5,185C 203.153,185.436 200.819,185.936 198.5,186.5C 197.261,186.058 196.261,185.391 195.5,184.5C 195.068,183.29 194.401,182.29 193.5,181.5C 192.697,180.577 192.53,179.577 193,178.5C 195.04,180.353 197.373,181.686 200,182.5C 200.483,181.552 200.649,180.552 200.5,179.5C 199.448,179.649 198.448,179.483 197.5,179C 197.727,177.865 198.06,176.698 198.5,175.5C 199.167,175.167 199.833,174.833 200.5,174.5C 201.788,178.883 203.788,179.383 206.5,176C 203.679,175.426 201.346,174.092 199.5,172C 196.118,171.824 192.785,171.324 189.5,170.5C 193.625,171.146 197.625,170.479 201.5,168.5 Z"/></g>
<g><path style="opacity:1" fill="#643d71" d="M 318.5,215.5 C 319.038,213.883 319.371,212.216 319.5,210.5C 320.166,203.341 320.5,196.008 320.5,188.5C 320.497,180.802 319.831,173.468 318.5,166.5C 318.811,165.522 319.478,164.855 320.5,164.5C 321.666,180.49 321.833,196.49 321,212.5C 320.623,213.942 319.79,214.942 318.5,215.5 Z"/></g>
<g><path style="opacity:1" fill="#81569c" d="M 184.5,174.5 C 185.583,174.539 186.583,174.873 187.5,175.5C 188.711,177.422 190.044,179.255 191.5,181C 192.094,181.464 192.761,181.631 193.5,181.5C 194.401,182.29 195.068,183.29 195.5,184.5C 195.5,185.5 195.5,186.5 195.5,187.5C 191.487,183.485 187.821,179.152 184.5,174.5 Z"/></g>
<g><path style="opacity:1" fill="#9943b0" d="M 239.5,167.5 C 241.279,169.344 243.612,170.01 246.5,169.5C 247.874,173.201 250.541,175.535 254.5,176.5C 255.244,177.991 255.91,179.491 256.5,181C 263.959,185.285 271.293,189.452 278.5,193.5C 273.5,193.5 268.5,193.5 263.5,193.5C 263.703,191.61 263.037,190.11 261.5,189C 258.232,188.064 255.899,186.064 254.5,183C 249.96,181.132 246.293,178.132 243.5,174C 240.167,172.833 236.833,171.667 233.5,170.5C 235.553,169.473 237.553,168.473 239.5,167.5 Z"/></g>
<g><path style="opacity:1" fill="#7c4a8d" d="M 287.5,182.5 C 288.5,182.5 289.5,182.5 290.5,182.5C 288.656,186.192 286.323,189.525 283.5,192.5C 283.5,191.167 283.5,189.833 283.5,188.5C 284.209,187.596 285.209,187.263 286.5,187.5C 286.366,185.708 286.699,184.042 287.5,182.5 Z"/></g>
<g><path style="opacity:1" fill="#a962d1" d="M 237.5,185.5 C 241.122,186.82 244.788,188.153 248.5,189.5C 249.552,189.351 250.552,189.517 251.5,190C 251.167,190.333 250.833,190.667 250.5,191C 254.51,193.173 258.843,194.006 263.5,193.5C 268.5,193.5 273.5,193.5 278.5,193.5C 279.167,193.5 279.833,193.5 280.5,193.5C 256.003,194.663 231.337,194.83 206.5,194C 202.975,191.652 199.308,189.485 195.5,187.5C 195.5,186.5 195.5,185.5 195.5,184.5C 196.261,185.391 197.261,186.058 198.5,186.5C 200.819,185.936 203.153,185.436 205.5,185C 208.082,181.718 211.416,180.718 215.5,182C 220.751,184.541 225.585,187.708 230,191.5C 230.692,190.975 231.192,190.308 231.5,189.5C 229.711,188.377 229.378,187.044 230.5,185.5C 233.142,187.83 236.142,188.997 239.5,189C 236.833,188.333 236.833,187.667 239.5,187C 238.584,186.722 237.918,186.222 237.5,185.5 Z"/></g>
<g><path style="opacity:1" fill="#903aa1" d="M 246.5,169.5 C 251.157,168.994 255.49,169.827 259.5,172C 262.109,175.713 265.276,178.88 269,181.5C 271.477,179.36 273.477,180.027 275,183.5C 275.671,182.748 276.504,182.414 277.5,182.5C 280.852,183.707 284.186,183.707 287.5,182.5C 286.699,184.042 286.366,185.708 286.5,187.5C 285.209,187.263 284.209,187.596 283.5,188.5C 282.11,189.899 281.11,191.566 280.5,193.5C 279.833,193.5 279.167,193.5 278.5,193.5C 271.293,189.452 263.959,185.285 256.5,181C 255.91,179.491 255.244,177.991 254.5,176.5C 250.541,175.535 247.874,173.201 246.5,169.5 Z"/></g>
<g><path style="opacity:1" fill="#793189" d="M 319.5,177.5 C 319.5,188.5 319.5,199.5 319.5,210.5C 319.371,212.216 319.038,213.883 318.5,215.5C 317.222,215.782 316.222,216.449 315.5,217.5C 315.421,216.07 315.754,214.736 316.5,213.5C 314.441,212.049 313.441,210.049 313.5,207.5C 310.912,207.543 308.746,208.543 307,210.5C 304.539,207.725 302.539,204.725 301,201.5C 299.202,203.972 296.868,205.639 294,206.5C 293.517,205.552 293.351,204.552 293.5,203.5C 297.757,197.975 301.757,192.308 305.5,186.5C 305.286,188.144 305.62,189.644 306.5,191C 305.833,191.667 305.167,192.333 304.5,193C 306.579,194.64 308.912,195.806 311.5,196.5C 312.298,198.078 312.798,199.744 313,201.5C 313.333,200.833 313.667,200.167 314,199.5C 314.637,201.303 315.803,202.636 317.5,203.5C 318.167,194.676 318.833,186.009 319.5,177.5 Z"/></g>
<g><path style="opacity:1" fill="#6f2375" d="M 319.5,177.5 C 318.833,186.009 318.167,194.676 317.5,203.5C 315.803,202.636 314.637,201.303 314,199.5C 313.667,200.167 313.333,200.833 313,201.5C 312.798,199.744 312.298,198.078 311.5,196.5C 308.912,195.806 306.579,194.64 304.5,193C 305.167,192.333 305.833,191.667 306.5,191C 305.62,189.644 305.286,188.144 305.5,186.5C 309.981,180.903 314.481,175.236 319,169.5C 319.497,172.146 319.664,174.813 319.5,177.5 Z"/></g>
<g><path style="opacity:1" fill="#9a67b8" d="M 195.5,187.5 C 199.308,189.485 202.975,191.652 206.5,194C 231.337,194.83 256.003,194.663 280.5,193.5C 281.11,191.566 282.11,189.899 283.5,188.5C 283.5,189.833 283.5,191.167 283.5,192.5C 283.047,193.458 282.381,194.292 281.5,195C 254.833,195.667 228.167,195.667 201.5,195C 199.371,192.561 197.371,190.061 195.5,187.5 Z"/></g>
<g><path style="opacity:1" fill="#7d3fa0" d="M 315.5,217.5 C 313.352,217.389 313.019,218.056 314.5,219.5C 313.119,220.881 311.785,222.215 310.5,223.5C 307.672,223.379 305.006,224.046 302.5,225.5C 299.328,222.498 295.662,220.331 291.5,219C 289.023,217.625 288.189,215.791 289,213.5C 288.23,214.598 287.397,214.598 286.5,213.5C 288.193,210.816 289.86,208.149 291.5,205.5C 291.5,204.167 292.167,203.5 293.5,203.5C 293.351,204.552 293.517,205.552 294,206.5C 296.868,205.639 299.202,203.972 301,201.5C 302.539,204.725 304.539,207.725 307,210.5C 308.746,208.543 310.912,207.543 313.5,207.5C 313.441,210.049 314.441,212.049 316.5,213.5C 315.754,214.736 315.421,216.07 315.5,217.5 Z"/></g>
<g><path style="opacity:1" fill="#7f4db1" d="M 286.5,213.5 C 287.397,214.598 288.23,214.598 289,213.5C 288.189,215.791 289.023,217.625 291.5,219C 295.662,220.331 299.328,222.498 302.5,225.5C 305.006,224.046 307.672,223.379 310.5,223.5C 307.628,226.188 304.961,229.188 302.5,232.5C 301.312,233.684 300.145,233.684 299,232.5C 298.047,234.455 296.713,236.122 295,237.5C 294.667,237.167 294.333,236.833 294,236.5C 293.923,234.347 293.923,232.014 294,229.5C 296.001,229.834 297.835,229.834 299.5,229.5C 298.855,228.354 298.022,227.354 297,226.5C 295.429,226.25 293.929,226.917 292.5,228.5C 291.263,228.444 290.263,227.944 289.5,227C 290.743,225.846 291.743,224.512 292.5,223C 291.009,221.09 289.509,219.923 288,219.5C 286.984,220.634 286.317,220.301 286,218.5C 285.257,220.645 284.424,220.811 283.5,219C 284.14,216.88 285.14,215.046 286.5,213.5 Z"/></g>
<g><path style="opacity:1" fill="#74599d" d="M 318.5,215.5 C 309.975,227.896 300.975,239.896 291.5,251.5C 291.5,250.5 291.5,249.5 291.5,248.5C 293.122,246.394 294.455,244.061 295.5,241.5C 298.07,238.7 300.403,235.7 302.5,232.5C 304.961,229.188 307.628,226.188 310.5,223.5C 311.785,222.215 313.119,220.881 314.5,219.5C 313.019,218.056 313.352,217.389 315.5,217.5C 316.222,216.449 317.222,215.782 318.5,215.5 Z"/></g>
<g><path style="opacity:1" fill="#806db4" d="M 283.5,213.5 C 283.457,217.09 281.957,219.757 279,221.5C 278.392,223.154 277.892,224.821 277.5,226.5C 273.879,231.293 270.046,235.96 266,240.5C 265.51,242.545 265.677,244.545 266.5,246.5C 264.833,245.167 263.167,245.167 261.5,246.5C 261.821,244.952 262.821,244.285 264.5,244.5C 264.5,242.833 264.5,241.167 264.5,239.5C 270.347,230.47 276.68,221.803 283.5,213.5 Z"/></g>
<g><path style="opacity:1" fill="#7d64c1" d="M 277.5,226.5 C 276.089,229.324 276.255,231.99 278,234.5C 282.311,232.396 285.145,233.563 286.5,238C 288.101,238.273 289.601,238.773 291,239.5C 291.617,240.449 291.451,241.282 290.5,242C 292.107,241.981 293.774,241.815 295.5,241.5C 294.455,244.061 293.122,246.394 291.5,248.5C 290.883,248.611 290.383,248.944 290,249.5C 289.333,248.167 288.667,246.833 288,245.5C 287.259,246.641 286.425,246.641 285.5,245.5C 283.651,246.593 281.984,247.926 280.5,249.5C 278.936,248.814 277.269,248.981 275.5,250C 276.579,250.956 277.745,251.789 279,252.5C 279.688,253.332 279.521,253.998 278.5,254.5C 276.796,252.959 274.963,251.625 273,250.5C 272.055,250.905 271.388,251.572 271,252.5C 271,249.167 271,245.833 271,242.5C 270.02,244.059 269.187,245.726 268.5,247.5C 267.817,247.137 267.15,246.804 266.5,246.5C 265.677,244.545 265.51,242.545 266,240.5C 270.046,235.96 273.879,231.293 277.5,226.5 Z"/></g>
<g><path style="opacity:1" fill="#7c62a5" d="M 250.5,239.5 C 250.343,238.127 250.51,236.793 251,235.5C 253.532,233.285 255.365,230.618 256.5,227.5C 257.806,226.533 258.473,225.199 258.5,223.5C 259.5,223.5 260.5,223.5 261.5,223.5C 262.634,219.955 264.3,216.622 266.5,213.5C 256.167,212.167 245.833,212.167 235.5,213.5C 234.479,214.901 233.479,216.235 232.5,217.5C 229.771,221.936 226.771,226.27 223.5,230.5C 222.599,231.29 221.932,232.29 221.5,233.5C 218.136,237.857 214.802,242.191 211.5,246.5C 211.704,244.315 212.37,242.315 213.5,240.5C 220.051,230.599 227.051,220.933 234.5,211.5C 245.511,210.79 256.511,210.124 267.5,209.5C 270.082,209.747 270.915,211.08 270,213.5C 263.723,222.414 257.223,231.08 250.5,239.5 Z"/></g>
<g><path style="opacity:1" fill="#8a66c6" d="M 232.5,217.5 C 234.098,220.436 236.098,223.103 238.5,225.5C 239.584,224.335 240.417,223.002 241,221.5C 241.667,222.833 242.333,222.833 243,221.5C 243.161,224.178 244.495,225.845 247,226.5C 248.63,225.453 250.296,224.453 252,223.5C 252.711,225.367 252.211,226.867 250.5,228C 251.381,228.708 252.047,229.542 252.5,230.5C 250.906,233.468 248.572,234.468 245.5,233.5C 243.553,234.277 241.72,235.277 240,236.5C 238.467,235.305 236.967,235.305 235.5,236.5C 235.594,235.028 234.594,233.862 232.5,233C 229.829,231.097 226.829,230.264 223.5,230.5C 226.771,226.27 229.771,221.936 232.5,217.5 Z"/></g>
<g><path style="opacity:1" fill="#9e6acf" d="M 256.5,227.5 C 254.859,228.147 253.526,229.147 252.5,230.5C 252.047,229.542 251.381,228.708 250.5,228C 252.211,226.867 252.711,225.367 252,223.5C 250.296,224.453 248.63,225.453 247,226.5C 244.495,225.845 243.161,224.178 243,221.5C 242.333,222.833 241.667,222.833 241,221.5C 240.417,223.002 239.584,224.335 238.5,225.5C 236.098,223.103 234.098,220.436 232.5,217.5C 233.479,216.235 234.479,214.901 235.5,213.5C 245.833,212.167 256.167,212.167 266.5,213.5C 264.3,216.622 262.634,219.955 261.5,223.5C 260.5,223.5 259.5,223.5 258.5,223.5C 258.473,225.199 257.806,226.533 256.5,227.5 Z"/></g>
<g><path style="opacity:1" fill="#7f65c0" d="M 256.5,227.5 C 255.365,230.618 253.532,233.285 251,235.5C 250.51,236.793 250.343,238.127 250.5,239.5C 247.84,241.452 245.174,243.452 242.5,245.5C 242.141,243.629 241.141,242.129 239.5,241C 233.979,237.435 227.979,234.935 221.5,233.5C 221.932,232.29 222.599,231.29 223.5,230.5C 226.829,230.264 229.829,231.097 232.5,233C 234.594,233.862 235.594,235.028 235.5,236.5C 236.967,235.305 238.467,235.305 240,236.5C 241.72,235.277 243.553,234.277 245.5,233.5C 248.572,234.468 250.906,233.468 252.5,230.5C 253.526,229.147 254.859,228.147 256.5,227.5 Z"/></g>
<g><path style="opacity:1" fill="#815ab9" d="M 291.5,205.5 C 289.86,208.149 288.193,210.816 286.5,213.5C 285.14,215.046 284.14,216.88 283.5,219C 284.424,220.811 285.257,220.645 286,218.5C 286.317,220.301 286.984,220.634 288,219.5C 289.509,219.923 291.009,221.09 292.5,223C 291.743,224.512 290.743,225.846 289.5,227C 290.263,227.944 291.263,228.444 292.5,228.5C 293.929,226.917 295.429,226.25 297,226.5C 298.022,227.354 298.855,228.354 299.5,229.5C 297.835,229.834 296.001,229.834 294,229.5C 293.923,232.014 293.923,234.347 294,236.5C 294.333,236.833 294.667,237.167 295,237.5C 296.713,236.122 298.047,234.455 299,232.5C 300.145,233.684 301.312,233.684 302.5,232.5C 300.403,235.7 298.07,238.7 295.5,241.5C 293.774,241.815 292.107,241.981 290.5,242C 291.451,241.282 291.617,240.449 291,239.5C 289.601,238.773 288.101,238.273 286.5,238C 285.145,233.563 282.311,232.396 278,234.5C 276.255,231.99 276.089,229.324 277.5,226.5C 277.892,224.821 278.392,223.154 279,221.5C 281.957,219.757 283.457,217.09 283.5,213.5C 283.5,212.833 283.833,212.5 284.5,212.5C 286.605,209.973 288.939,207.64 291.5,205.5 Z"/></g>
<g><path style="opacity:1" fill="#58439b" d="M 221.5,233.5 C 227.979,234.935 233.979,237.435 239.5,241C 241.141,242.129 242.141,243.629 242.5,245.5C 242.232,247.099 242.566,248.432 243.5,249.5C 243.5,250.167 243.167,250.5 242.5,250.5C 241.036,249.595 239.702,249.595 238.5,250.5C 233.659,248.5 229.492,245.5 226,241.5C 222.703,243.089 221.203,245.755 221.5,249.5C 219.574,250.242 217.741,251.242 216,252.5C 214.242,250.917 212.742,249.25 211.5,247.5C 211.5,247.167 211.5,246.833 211.5,246.5C 214.802,242.191 218.136,237.857 221.5,233.5 Z"/></g>
<g><path style="opacity:1" fill="#504396" d="M 238.5,250.5 C 238.762,251.978 238.429,253.311 237.5,254.5C 235.118,256.215 233.118,258.215 231.5,260.5C 229.297,257.562 226.297,255.895 222.5,255.5C 222.286,253.856 222.62,252.356 223.5,251C 222.956,250.283 222.289,249.783 221.5,249.5C 221.203,245.755 222.703,243.089 226,241.5C 229.492,245.5 233.659,248.5 238.5,250.5 Z"/></g>
<g><path style="opacity:1" fill="#695c9c" d="M 250.5,239.5 C 248.154,242.871 245.821,246.204 243.5,249.5C 242.566,248.432 242.232,247.099 242.5,245.5C 245.174,243.452 247.84,241.452 250.5,239.5 Z"/></g>
<g><path style="opacity:1" fill="#7468bd" d="M 291.5,248.5 C 291.5,249.5 291.5,250.5 291.5,251.5C 290.974,253.23 289.974,254.564 288.5,255.5C 286.067,255.273 284.401,256.273 283.5,258.5C 281.876,258.36 280.71,259.027 280,260.5C 278.529,258.098 277.029,258.264 275.5,261C 274.207,261.49 272.873,261.657 271.5,261.5C 271.703,259.61 271.037,258.11 269.5,257C 266.97,255.127 264.47,253.293 262,251.5C 260.539,252.883 259.706,252.549 259.5,250.5C 259.733,248.938 260.4,247.605 261.5,246.5C 263.167,245.167 264.833,245.167 266.5,246.5C 267.15,246.804 267.817,247.137 268.5,247.5C 269.187,245.726 270.02,244.059 271,242.5C 271,245.833 271,249.167 271,252.5C 271.388,251.572 272.055,250.905 273,250.5C 274.963,251.625 276.796,252.959 278.5,254.5C 279.521,253.998 279.688,253.332 279,252.5C 277.745,251.789 276.579,250.956 275.5,250C 277.269,248.981 278.936,248.814 280.5,249.5C 281.984,247.926 283.651,246.593 285.5,245.5C 286.425,246.641 287.259,246.641 288,245.5C 288.667,246.833 289.333,248.167 290,249.5C 290.383,248.944 290.883,248.611 291.5,248.5 Z"/></g>
<g><path style="opacity:1" fill="#6160b2" d="M 259.5,250.5 C 259.706,252.549 260.539,252.883 262,251.5C 264.47,253.293 266.97,255.127 269.5,257C 271.037,258.11 271.703,259.61 271.5,261.5C 272.873,261.657 274.207,261.49 275.5,261C 277.029,258.264 278.529,258.098 280,260.5C 280.71,259.027 281.876,258.36 283.5,258.5C 281.299,260.71 279.966,263.376 279.5,266.5C 277.362,266.297 275.695,265.297 274.5,263.5C 273.15,264.95 271.484,265.617 269.5,265.5C 265.736,265.412 262.236,264.412 259,262.5C 256.766,263.705 255.099,263.039 254,260.5C 253.517,261.448 253.351,262.448 253.5,263.5C 250.674,263.998 248.34,265.331 246.5,267.5C 250.552,263.089 253.886,258.089 256.5,252.5C 257.518,251.807 258.518,251.141 259.5,250.5 Z"/></g>
<g><path style="opacity:1" fill="#3d317e" d="M 204.5,256.5 C 205.922,256.75 206.922,257.583 207.5,259C 206.549,259.718 206.383,260.551 207,261.5C 208.113,260.289 209.28,260.289 210.5,261.5C 212.167,263.833 214.167,265.833 216.5,267.5C 217.141,269.296 218.141,270.796 219.5,272C 218.549,272.718 218.383,273.551 219,274.5C 219.671,273.748 220.504,273.414 221.5,273.5C 220.551,275.777 219.218,277.777 217.5,279.5C 217.587,276.402 217.087,276.068 216,278.5C 215.259,277.359 214.425,277.359 213.5,278.5C 212.832,276.074 212.498,273.741 212.5,271.5C 210.781,274.048 209.448,273.715 208.5,270.5C 205.363,271.691 202.197,272.691 199,273.5C 198.25,272.874 197.416,272.374 196.5,272C 199.553,270.478 202.22,268.478 204.5,266C 201.692,265.08 199.525,265.913 198,268.5C 197.536,267.906 197.369,267.239 197.5,266.5C 199.477,262.867 201.81,259.533 204.5,256.5 Z"/></g>
<g><path style="opacity:1" fill="#433987" d="M 211.5,247.5 C 212.742,249.25 214.242,250.917 216,252.5C 217.741,251.242 219.574,250.242 221.5,249.5C 222.289,249.783 222.956,250.283 223.5,251C 222.62,252.356 222.286,253.856 222.5,255.5C 226.297,255.895 229.297,257.562 231.5,260.5C 228.386,265.092 225.052,269.426 221.5,273.5C 220.504,273.414 219.671,273.748 219,274.5C 218.383,273.551 218.549,272.718 219.5,272C 218.141,270.796 217.141,269.296 216.5,267.5C 214.167,265.833 212.167,263.833 210.5,261.5C 209.28,260.289 208.113,260.289 207,261.5C 206.383,260.551 206.549,259.718 207.5,259C 206.922,257.583 205.922,256.75 204.5,256.5C 207.246,253.762 209.58,250.762 211.5,247.5 Z"/></g>
<g><path style="opacity:1" fill="#504e89" d="M 242.5,250.5 C 230.155,267.205 217.822,283.871 205.5,300.5C 204.5,300.5 203.5,300.5 202.5,300.5C 203.692,298.887 204.692,297.22 205.5,295.5C 209.975,290.563 213.975,285.23 217.5,279.5C 219.218,277.777 220.551,275.777 221.5,273.5C 225.052,269.426 228.386,265.092 231.5,260.5C 233.118,258.215 235.118,256.215 237.5,254.5C 238.429,253.311 238.762,251.978 238.5,250.5C 239.702,249.595 241.036,249.595 242.5,250.5 Z"/></g>
<g><path style="opacity:1" fill="#372d72" d="M 217.5,279.5 C 213.975,285.23 209.975,290.563 205.5,295.5C 203.992,292.86 204.326,290.527 206.5,288.5C 205.726,287.289 204.893,287.289 204,288.5C 203.503,286.19 203.337,283.857 203.5,281.5C 199.261,279.915 195.261,277.915 191.5,275.5C 192.682,271.979 194.682,268.979 197.5,266.5C 197.369,267.239 197.536,267.906 198,268.5C 199.525,265.913 201.692,265.08 204.5,266C 202.22,268.478 199.553,270.478 196.5,272C 197.416,272.374 198.25,272.874 199,273.5C 202.197,272.691 205.363,271.691 208.5,270.5C 209.448,273.715 210.781,274.048 212.5,271.5C 212.498,273.741 212.832,276.074 213.5,278.5C 214.425,277.359 215.259,277.359 216,278.5C 217.087,276.068 217.587,276.402 217.5,279.5 Z"/></g>
<g><path style="opacity:1" fill="#564b85" d="M 213.5,240.5 C 212.37,242.315 211.704,244.315 211.5,246.5C 211.5,246.833 211.5,247.167 211.5,247.5C 209.58,250.762 207.246,253.762 204.5,256.5C 201.81,259.533 199.477,262.867 197.5,266.5C 194.682,268.979 192.682,271.979 191.5,275.5C 187.596,279.648 183.929,283.981 180.5,288.5C 180.167,288.5 179.833,288.5 179.5,288.5C 179.5,287.833 179.5,287.167 179.5,286.5C 190.348,270.802 201.681,255.469 213.5,240.5 Z"/></g>
<g><path style="opacity:1" fill="#332564" d="M 191.5,275.5 C 195.261,277.915 199.261,279.915 203.5,281.5C 203.337,283.857 203.503,286.19 204,288.5C 204.893,287.289 205.726,287.289 206.5,288.5C 204.326,290.527 203.992,292.86 205.5,295.5C 204.692,297.22 203.692,298.887 202.5,300.5C 202.167,300.5 201.833,300.5 201.5,300.5C 199.028,299.358 198.028,297.358 198.5,294.5C 199.552,294.649 200.552,294.483 201.5,294C 199.484,292.066 197.484,291.733 195.5,293C 195.833,293.333 196.167,293.667 196.5,294C 195.421,294.956 194.255,295.789 193,296.5C 191.972,294.639 190.472,293.305 188.5,292.5C 187.877,290.034 187.043,287.701 186,285.5C 185.667,288.833 185.333,292.167 185,295.5C 184.667,295.833 184.333,296.167 184,296.5C 183.29,295.027 182.124,294.36 180.5,294.5C 180.5,292.5 180.5,290.5 180.5,288.5C 183.929,283.981 187.596,279.648 191.5,275.5 Z"/></g>
<g><path style="opacity:1" fill="#5665a5" d="M 264.5,239.5 C 264.5,241.167 264.5,242.833 264.5,244.5C 262.821,244.285 261.821,244.952 261.5,246.5C 260.4,247.605 259.733,248.938 259.5,250.5C 258.518,251.141 257.518,251.807 256.5,252.5C 253.886,258.089 250.552,263.089 246.5,267.5C 245.833,268.833 245.167,270.167 244.5,271.5C 240.461,275.223 237.127,279.557 234.5,284.5C 235.025,285.192 235.692,285.692 236.5,286C 243.679,286.821 250.679,286.655 257.5,285.5C 259.565,282.708 262.065,280.375 265,278.5C 265.494,276.866 265.66,275.199 265.5,273.5C 268.845,273.326 270.012,274.659 269,277.5C 269.333,277.167 269.667,276.833 270,276.5C 270.21,272.589 270.043,268.922 269.5,265.5C 271.484,265.617 273.15,264.95 274.5,263.5C 275.695,265.297 277.362,266.297 279.5,266.5C 279.966,263.376 281.299,260.71 283.5,258.5C 284.401,256.273 286.067,255.273 288.5,255.5C 280.763,266.618 272.763,277.618 264.5,288.5C 252.518,289.499 240.518,289.832 228.5,289.5C 228.608,287.217 229.441,285.217 231,283.5C 241.944,268.585 253.111,253.918 264.5,239.5 Z"/></g>
<g><path style="opacity:1" fill="#404e98" d="M 244.5,271.5 C 244.883,273.408 245.883,274.908 247.5,276C 246.692,276.308 246.025,276.808 245.5,277.5C 246.274,278.711 247.107,278.711 248,277.5C 249.319,279.487 251.152,280.654 253.5,281C 255.286,282.196 256.619,283.696 257.5,285.5C 250.679,286.655 243.679,286.821 236.5,286C 235.692,285.692 235.025,285.192 234.5,284.5C 237.127,279.557 240.461,275.223 244.5,271.5 Z"/></g>
<g><path style="opacity:1" fill="#4e56a6" d="M 269.5,265.5 C 270.043,268.922 270.21,272.589 270,276.5C 269.667,276.833 269.333,277.167 269,277.5C 270.012,274.659 268.845,273.326 265.5,273.5C 265.66,275.199 265.494,276.866 265,278.5C 262.065,280.375 259.565,282.708 257.5,285.5C 256.619,283.696 255.286,282.196 253.5,281C 251.152,280.654 249.319,279.487 248,277.5C 247.107,278.711 246.274,278.711 245.5,277.5C 246.025,276.808 246.692,276.308 247.5,276C 245.883,274.908 244.883,273.408 244.5,271.5C 245.167,270.167 245.833,268.833 246.5,267.5C 248.34,265.331 250.674,263.998 253.5,263.5C 253.351,262.448 253.517,261.448 254,260.5C 255.099,263.039 256.766,263.705 259,262.5C 262.236,264.412 265.736,265.412 269.5,265.5 Z"/></g>
<g><path style="opacity:1" fill="#554881" d="M 179.5,288.5 C 179.333,302.504 179.5,316.504 180,330.5C 180.383,331.056 180.883,331.389 181.5,331.5C 181.5,332.167 181.167,332.5 180.5,332.5C 179.883,332.611 179.383,332.944 179,333.5C 178.172,318.328 178.339,303.328 179.5,288.5 Z"/></g>
<g><path style="opacity:1" fill="#2b1950" d="M 201.5,300.5 C 195.15,309.868 188.316,318.868 181,327.5C 180.5,316.505 180.333,305.505 180.5,294.5C 182.124,294.36 183.29,295.027 184,296.5C 184.333,296.167 184.667,295.833 185,295.5C 185.333,292.167 185.667,288.833 186,285.5C 187.043,287.701 187.877,290.034 188.5,292.5C 190.472,293.305 191.972,294.639 193,296.5C 194.255,295.789 195.421,294.956 196.5,294C 196.167,293.667 195.833,293.333 195.5,293C 197.484,291.733 199.484,292.066 201.5,294C 200.552,294.483 199.552,294.649 198.5,294.5C 198.028,297.358 199.028,299.358 201.5,300.5 Z"/></g>
<g><path style="opacity:1" fill="#4e81b0" d="M 261.5,303.5 C 273.505,303.333 285.505,303.5 297.5,304C 306.21,313.708 314.543,323.708 322.5,334C 320.2,335.109 317.7,335.609 315,335.5C 306.374,334.794 297.874,334.461 289.5,334.5C 279.013,333.506 268.346,333.172 257.5,333.5C 261.298,332.517 265.298,332.183 269.5,332.5C 272.833,332.5 276.167,332.5 279.5,332.5C 291.5,332.5 303.5,332.5 315.5,332.5C 315.649,331.448 315.483,330.448 315,329.5C 310.623,323.39 305.789,317.723 300.5,312.5C 298.856,310.519 297.19,308.519 295.5,306.5C 283.979,305.888 272.646,304.888 261.5,303.5 Z"/></g>
<g><path style="opacity:1" fill="#283473" d="M 219.5,306.5 C 228.839,306.334 238.173,306.5 247.5,307C 247.167,307.333 246.833,307.667 246.5,308C 247.833,308.667 249.167,309.333 250.5,310C 250.167,310.333 249.833,310.667 249.5,311C 250.09,312.509 250.756,314.009 251.5,315.5C 253.188,316.521 254.521,317.855 255.5,319.5C 255.389,320.337 255.056,321.337 254.5,322.5C 253.998,323.521 253.332,323.688 252.5,323C 251.359,322.259 251.359,321.425 252.5,320.5C 248.788,318.122 245.788,315.122 243.5,311.5C 242.713,312.242 242.047,313.075 241.5,314C 243.439,315.432 244.772,317.265 245.5,319.5C 239.862,315.601 234.529,312.267 229.5,309.5C 228.183,309.179 226.849,308.846 225.5,308.5C 222.527,310.205 219.527,310.872 216.5,310.5C 217.211,308.97 218.211,307.637 219.5,306.5 Z"/></g>
<g><path style="opacity:1" fill="#2b5797" d="M 268.5,306.5 C 274.537,306.171 280.537,306.504 286.5,307.5C 287.002,308.716 287.335,309.883 287.5,311C 285.905,310.383 284.572,310.716 283.5,312C 284.794,314.087 285.961,316.254 287,318.5C 287.333,317.833 287.667,317.167 288,316.5C 288.178,322.063 290.678,325.896 295.5,328C 294.167,328.667 294.167,329.333 295.5,330C 294.263,330.232 293.263,330.732 292.5,331.5C 291.5,331.5 290.5,331.5 289.5,331.5C 289.082,330.778 288.416,330.278 287.5,330C 288.167,329.667 288.833,329.333 289.5,329C 287.606,327.921 287.273,326.587 288.5,325C 286.377,324.185 284.377,323.185 282.5,322C 282.833,321.667 283.167,321.333 283.5,321C 281.32,319.122 279.487,316.956 278,314.5C 277.316,313.216 277.483,312.049 278.5,311C 275.193,309.192 271.859,307.692 268.5,306.5 Z"/></g>
<g><path style="opacity:1" fill="#49487c" d="M 232.5,303.5 C 228.018,304.326 223.351,304.826 218.5,305C 217.288,306.107 217.621,306.607 219.5,306.5C 218.211,307.637 217.211,308.97 216.5,310.5C 214.478,312.531 212.811,314.865 211.5,317.5C 207.371,321.734 203.704,326.401 200.5,331.5C 201.325,332.386 202.325,332.719 203.5,332.5C 202.1,333.1 201.1,334.1 200.5,335.5C 199.127,335.657 197.793,335.49 196.5,335C 195.549,334.282 195.383,333.449 196,332.5C 203.531,323.269 210.698,313.769 217.5,304C 222.489,303.501 227.489,303.334 232.5,303.5 Z"/></g>
<g><path style="opacity:1" fill="#243269" d="M 229.5,309.5 C 234.529,312.267 239.862,315.601 245.5,319.5C 247.134,320.207 248.468,321.373 249.5,323C 248.729,324.998 249.395,326.665 251.5,328C 251.167,328.333 250.833,328.667 250.5,329C 252.167,329.333 253.833,329.667 255.5,330C 250.246,331.271 244.913,331.771 239.5,331.5C 239.879,330.194 240.212,328.861 240.5,327.5C 237.612,322.647 234.112,318.314 230,314.5C 228.481,312.861 228.314,311.194 229.5,309.5 Z"/></g>
<g><path style="opacity:1" fill="#253972" d="M 255.5,319.5 C 256.859,320.007 257.859,321.007 258.5,322.5C 260.071,323.309 261.738,323.643 263.5,323.5C 263.279,324.735 262.612,325.735 261.5,326.5C 263.672,327.205 265.672,328.205 267.5,329.5C 258.03,332.02 248.363,333.02 238.5,332.5C 238.5,331.833 238.833,331.5 239.5,331.5C 244.913,331.771 250.246,331.271 255.5,330C 253.833,329.667 252.167,329.333 250.5,329C 250.833,328.667 251.167,328.333 251.5,328C 249.395,326.665 248.729,324.998 249.5,323C 248.468,321.373 247.134,320.207 245.5,319.5C 244.772,317.265 243.439,315.432 241.5,314C 242.047,313.075 242.713,312.242 243.5,311.5C 245.788,315.122 248.788,318.122 252.5,320.5C 251.359,321.425 251.359,322.259 252.5,323C 253.332,323.688 253.998,323.521 254.5,322.5C 255.056,321.337 255.389,320.337 255.5,319.5 Z"/></g>
<g><path style="opacity:1" fill="#2b4080" d="M 219.5,306.5 C 233.34,305.365 247.34,305.365 261.5,306.5C 261.577,307.75 262.244,308.583 263.5,309C 262.829,309.986 262.829,311.153 263.5,312.5C 261.956,312.297 260.622,311.63 259.5,310.5C 258.738,311.628 258.071,312.795 257.5,314C 259.333,315.833 261.167,317.667 263,319.5C 263.456,320.744 262.956,321.577 261.5,322C 262.416,322.278 263.082,322.778 263.5,323.5C 261.738,323.643 260.071,323.309 258.5,322.5C 257.859,321.007 256.859,320.007 255.5,319.5C 254.521,317.855 253.188,316.521 251.5,315.5C 250.756,314.009 250.09,312.509 249.5,311C 249.833,310.667 250.167,310.333 250.5,310C 249.167,309.333 247.833,308.667 246.5,308C 246.833,307.667 247.167,307.333 247.5,307C 238.173,306.5 228.839,306.334 219.5,306.5 Z"/></g>
<g><path style="opacity:1" fill="#262a64" d="M 229.5,309.5 C 228.314,311.194 228.481,312.861 230,314.5C 234.112,318.314 237.612,322.647 240.5,327.5C 240.212,328.861 239.879,330.194 239.5,331.5C 238.833,331.5 238.5,331.833 238.5,332.5C 228.167,332.5 217.833,332.5 207.5,332.5C 214.674,331.395 222.008,330.395 229.5,329.5C 228.482,328.148 227.149,327.148 225.5,326.5C 226.641,325.575 226.641,324.741 225.5,324C 220.603,322.94 220.937,321.773 226.5,320.5C 225.349,319.269 224.183,319.269 223,320.5C 221.828,316.002 218.994,314.168 214.5,315C 214.957,315.414 215.291,315.914 215.5,316.5C 214.311,317.429 212.978,317.762 211.5,317.5C 212.811,314.865 214.478,312.531 216.5,310.5C 219.527,310.872 222.527,310.205 225.5,308.5C 226.849,308.846 228.183,309.179 229.5,309.5 Z"/></g>
<g><path style="opacity:1" fill="#413b66" d="M 179.5,286.5 C 179.5,287.167 179.5,287.833 179.5,288.5C 178.339,303.328 178.172,318.328 179,333.5C 179.383,332.944 179.883,332.611 180.5,332.5C 180.585,333.995 179.919,334.995 178.5,335.5C 177.334,319.51 177.167,303.51 178,287.5C 178.383,286.944 178.883,286.611 179.5,286.5 Z"/></g>
<g><path style="opacity:1" fill="#262355" d="M 207.5,332.5 C 206.167,332.5 204.833,332.5 203.5,332.5C 202.325,332.719 201.325,332.386 200.5,331.5C 203.704,326.401 207.371,321.734 211.5,317.5C 212.978,317.762 214.311,317.429 215.5,316.5C 215.291,315.914 214.957,315.414 214.5,315C 218.994,314.168 221.828,316.002 223,320.5C 224.183,319.269 225.349,319.269 226.5,320.5C 220.937,321.773 220.603,322.94 225.5,324C 226.641,324.741 226.641,325.575 225.5,326.5C 227.149,327.148 228.482,328.148 229.5,329.5C 222.008,330.395 214.674,331.395 207.5,332.5 Z"/></g>
<g><path style="opacity:1" fill="#284e8b" d="M 261.5,306.5 C 263.833,306.5 266.167,306.5 268.5,306.5C 271.859,307.692 275.193,309.192 278.5,311C 277.483,312.049 277.316,313.216 278,314.5C 279.487,316.956 281.32,319.122 283.5,321C 283.167,321.333 282.833,321.667 282.5,322C 284.377,323.185 286.377,324.185 288.5,325C 287.273,326.587 287.606,327.921 289.5,329C 288.833,329.333 288.167,329.667 287.5,330C 288.416,330.278 289.082,330.778 289.5,331.5C 285.958,331.187 282.625,331.521 279.5,332.5C 276.167,332.5 272.833,332.5 269.5,332.5C 272.12,332.009 274.454,330.842 276.5,329C 274.919,328.293 273.419,327.46 272,326.5C 270.94,321.621 268.273,317.954 264,315.5C 263.517,314.552 263.351,313.552 263.5,312.5C 262.829,311.153 262.829,309.986 263.5,309C 262.244,308.583 261.577,307.75 261.5,306.5 Z"/></g>
<g><path style="opacity:1" fill="#3561a1" d="M 232.5,303.5 C 242.167,303.5 251.833,303.5 261.5,303.5C 272.646,304.888 283.979,305.888 295.5,306.5C 297.19,308.519 298.856,310.519 300.5,312.5C 300.414,313.496 300.748,314.329 301.5,315C 300.833,315.333 300.167,315.667 299.5,316C 301.422,317.46 302.089,319.127 301.5,321C 301,321.5 300.5,322 300,322.5C 299.716,320.114 298.716,319.448 297,320.5C 296.289,322.367 296.789,323.867 298.5,325C 298.043,325.414 297.709,325.914 297.5,326.5C 300.958,328.286 304.625,329.619 308.5,330.5C 303.208,331.495 297.875,331.828 292.5,331.5C 293.263,330.732 294.263,330.232 295.5,330C 294.167,329.333 294.167,328.667 295.5,328C 290.678,325.896 288.178,322.063 288,316.5C 287.667,317.167 287.333,317.833 287,318.5C 285.961,316.254 284.794,314.087 283.5,312C 284.572,310.716 285.905,310.383 287.5,311C 287.335,309.883 287.002,308.716 286.5,307.5C 280.537,306.504 274.537,306.171 268.5,306.5C 266.167,306.5 263.833,306.5 261.5,306.5C 247.34,305.365 233.34,305.365 219.5,306.5C 217.621,306.607 217.288,306.107 218.5,305C 223.351,304.826 228.018,304.326 232.5,303.5 Z"/></g>
<g><path style="opacity:1" fill="#43366a" d="M 179.5,288.5 C 179.833,288.5 180.167,288.5 180.5,288.5C 180.5,290.5 180.5,292.5 180.5,294.5C 180.333,305.505 180.5,316.505 181,327.5C 188.316,318.868 195.15,309.868 201.5,300.5C 201.833,300.5 202.167,300.5 202.5,300.5C 203.5,300.5 204.5,300.5 205.5,300.5C 198.234,311.429 190.234,321.762 181.5,331.5C 180.883,331.389 180.383,331.056 180,330.5C 179.5,316.504 179.333,302.504 179.5,288.5 Z"/></g>
<g><path style="opacity:1" fill="#2d4682" d="M 263.5,312.5 C 263.351,313.552 263.517,314.552 264,315.5C 268.273,317.954 270.94,321.621 272,326.5C 273.419,327.46 274.919,328.293 276.5,329C 274.454,330.842 272.12,332.009 269.5,332.5C 265.298,332.183 261.298,332.517 257.5,333.5C 240.658,333.83 223.992,333.497 207.5,332.5C 217.833,332.5 228.167,332.5 238.5,332.5C 248.363,333.02 258.03,332.02 267.5,329.5C 265.672,328.205 263.672,327.205 261.5,326.5C 262.612,325.735 263.279,324.735 263.5,323.5C 263.082,322.778 262.416,322.278 261.5,322C 262.956,321.577 263.456,320.744 263,319.5C 261.167,317.667 259.333,315.833 257.5,314C 258.071,312.795 258.738,311.628 259.5,310.5C 260.622,311.63 261.956,312.297 263.5,312.5 Z"/></g>
<g><path style="opacity:1" fill="#2e66a5" d="M 300.5,312.5 C 305.789,317.723 310.623,323.39 315,329.5C 315.483,330.448 315.649,331.448 315.5,332.5C 303.5,332.5 291.5,332.5 279.5,332.5C 282.625,331.521 285.958,331.187 289.5,331.5C 290.5,331.5 291.5,331.5 292.5,331.5C 297.875,331.828 303.208,331.495 308.5,330.5C 304.625,329.619 300.958,328.286 297.5,326.5C 297.709,325.914 298.043,325.414 298.5,325C 296.789,323.867 296.289,322.367 297,320.5C 298.716,319.448 299.716,320.114 300,322.5C 300.5,322 301,321.5 301.5,321C 302.089,319.127 301.422,317.46 299.5,316C 300.167,315.667 300.833,315.333 301.5,315C 300.748,314.329 300.414,313.496 300.5,312.5 Z"/></g>
<g><path style="opacity:1" fill="#3b4a6d" d="M 203.5,332.5 C 204.833,332.5 206.167,332.5 207.5,332.5C 223.992,333.497 240.658,333.83 257.5,333.5C 268.346,333.172 279.013,333.506 289.5,334.5C 259.76,334.175 230.093,334.508 200.5,335.5C 201.1,334.1 202.1,333.1 203.5,332.5 Z"/></g>
</svg>